<svg width="1680" height="1050" viewBox="0 0 1680 1050" fill="none" xmlns="http://www.w3.org/2000/svg">
<g id="Desktop - 1">
<g id="group2">
<path id="Vector" d="M1157.56 476.029L1097.18 454.631L1157.53 431.992C1167.58 428.218 1172.57 417.278 1168.62 407.675C1164.67 398.073 1153.22 393.3 1143.18 397.073L1037.45 436.74C1030.91 439.191 1026.52 444.674 1025.33 450.858C1022.64 460.122 1027.81 470.055 1037.41 473.457L1143.91 511.198C1154.04 514.785 1165.39 509.803 1169.15 500.136C1172.89 490.469 1167.69 479.617 1157.56 476.029Z" fill="#E86149" stroke="#12100B" stroke-width="3" stroke-miterlimit="10"/>
<path id="Vector_2" d="M1289.36 476.029L1349.16 454.631L1289.4 431.992C1279.45 428.218 1274.5 417.278 1278.41 407.675C1282.32 398.073 1293.66 393.3 1303.61 397.073L1408.32 436.74C1414.78 439.191 1419.13 444.674 1420.31 450.858C1422.98 460.122 1417.86 470.055 1408.35 473.457L1302.88 511.198C1292.85 514.785 1281.62 509.803 1277.89 500.136C1274.17 490.469 1279.33 479.617 1289.36 476.029Z" fill="#5BA8DC" stroke="#12100B" stroke-width="3" stroke-miterlimit="10"/>
<path id="Vector_3" d="M1250.05 380.609L1223.21 539.046C1221.52 549.011 1211.61 555.848 1201.17 554.235C1190.74 552.623 1183.59 543.149 1185.27 533.184L1212.12 374.748C1213.8 364.783 1223.72 357.946 1234.15 359.558C1244.6 361.171 1251.74 370.644 1250.05 380.609Z" fill="#74B1A0" stroke="#12100B" stroke-width="3" stroke-miterlimit="10"/>
</g>
<g id="group3">
<path id="Vector_4" d="M1245.96 606.854C1257.57 606.854 1266.98 597.953 1266.98 586.972C1266.98 575.992 1257.57 567.091 1245.96 567.091C1234.35 567.091 1224.94 575.992 1224.94 586.972C1224.94 597.953 1234.35 606.854 1245.96 606.854Z" fill="#74509B" stroke="#12100B" stroke-width="3" stroke-miterlimit="10"/>
<path id="Vector_5" d="M1471.14 474.555L1535.97 535.885C1544.09 543.57 1544.09 556.035 1535.97 563.719C1527.84 571.404 1514.67 571.404 1506.54 563.719L1441.72 502.389C1433.59 494.704 1433.59 482.24 1441.72 474.555C1449.84 466.87 1463.02 466.87 1471.14 474.555Z" fill="#E6A29E" stroke="#12100B" stroke-width="3" stroke-miterlimit="10"/>
<path id="Vector_6" d="M1518.88 614.711C1530.49 614.711 1539.9 605.81 1539.9 594.83C1539.9 583.85 1530.49 574.948 1518.88 574.948C1507.27 574.948 1497.86 583.85 1497.86 594.83C1497.86 605.81 1507.27 614.711 1518.88 614.711Z" fill="#BEBBBA" stroke="#12100B" stroke-width="3" stroke-miterlimit="10"/>
<path id="Vector_7" d="M1452.54 646.954C1468.92 646.954 1482.2 634.388 1482.2 618.886C1482.2 603.385 1468.92 590.819 1452.54 590.819C1436.15 590.819 1422.86 603.385 1422.86 618.886C1422.86 634.388 1436.15 646.954 1452.54 646.954Z" fill="#5BA8DC" stroke="#12100B" stroke-width="3" stroke-miterlimit="10"/>
<path id="Vector_8" d="M1417.2 423.719C1428.81 423.719 1438.22 414.818 1438.22 403.837C1438.22 392.857 1428.81 383.955 1417.2 383.955C1405.6 383.955 1396.19 392.857 1396.19 403.837C1396.19 414.818 1405.6 423.719 1417.2 423.719Z" fill="#E86149" stroke="#12100B" stroke-width="3" stroke-miterlimit="10"/>
<path id="Vector_9" d="M1516.53 323.905C1528.14 323.905 1537.55 315.003 1537.55 304.023C1537.55 293.042 1528.14 284.141 1516.53 284.141C1504.93 284.141 1495.51 293.042 1495.51 304.023C1495.51 315.003 1504.93 323.905 1516.53 323.905Z" fill="#74509B" stroke="#12100B" stroke-width="3" stroke-miterlimit="10"/>
</g>
<g id="group1">
<g id="Group">
<path id="Vector_10" d="M1543.59 377.865C1541.92 369.244 1535.37 362.845 1527.25 361.363C1523.31 360.64 1519.81 359.049 1516.79 356.565C1510.78 351.63 1505.73 338.671 1501.68 317.687C1498.59 301.71 1495.75 289.988 1493.15 282.524C1490.56 275.06 1486.64 269.203 1481.39 264.938C1476.14 260.672 1469.93 258.124 1462.76 257.293C1455.59 256.461 1445.85 257.401 1433.57 260.112L1433.43 260.139C1429.62 260.98 1427.16 264.965 1427.95 269.032L1431.68 288.335C1432.44 292.275 1435.98 294.878 1439.69 294.245C1448.68 292.709 1454.42 292.872 1456.91 294.724C1459.99 297.001 1462.41 302.234 1464.17 310.421C1469.08 332.996 1472.62 347.591 1474.78 354.215C1476.93 360.839 1480.13 366.912 1484.38 372.424C1487.23 376.13 1491.24 379.456 1496.42 382.402C1500.3 384.616 1501.27 390.038 1498.57 393.734C1495.12 398.452 1492.67 403.386 1491.22 408.546C1489.01 416.426 1488.88 427.099 1490.83 440.564L1496.7 481.574C1496.78 482.044 1496.81 482.514 1496.79 482.984C1496.62 486.816 1495.31 489.997 1492.84 492.536C1490.81 494.632 1486.29 496.638 1479.28 498.555C1475.64 499.549 1473.36 503.434 1474.12 507.374L1477.87 526.823C1478.66 530.898 1482.39 533.519 1486.2 532.679C1500.35 529.552 1510.93 525.422 1517.97 520.27C1525 515.119 1529.48 508.243 1531.41 499.63C1533.35 491.018 1532.63 477.968 1529.25 460.481C1525.52 441.197 1523.76 428.717 1523.96 423.059C1524.16 417.393 1525.59 411.935 1528.26 406.657C1529.57 404.082 1531.71 401.831 1534.7 399.906C1541.77 395.388 1545.25 386.486 1543.59 377.865Z" fill="#BEBBBA" stroke="#12100B" stroke-width="3" stroke-miterlimit="10"/>
</g>
<g id="Group_2">
<path id="Vector_11" d="M840.41 458.635C842.076 467.256 848.637 473.655 856.754 475.136C860.694 475.86 864.186 477.45 867.205 479.935C873.225 484.87 878.273 497.828 882.323 518.813C885.41 534.79 888.25 546.511 890.846 553.976C893.441 561.441 897.365 567.296 902.616 571.562C907.866 575.827 914.072 578.376 921.242 579.207C928.412 580.038 938.145 579.099 950.439 576.388L950.574 576.36C954.387 575.52 956.84 571.535 956.053 567.468L952.325 548.165C951.564 544.225 948.029 541.622 944.309 542.255C935.329 543.791 929.588 543.628 927.085 541.775C924.016 539.499 921.597 534.266 919.83 526.079C914.918 503.504 911.384 488.909 909.227 482.285C907.072 475.661 903.867 469.588 899.623 464.076C896.773 460.37 892.757 457.044 887.583 454.098C883.701 451.884 882.729 446.462 885.435 442.766C888.884 438.049 891.336 433.115 892.782 427.954C894.998 420.074 895.124 409.401 893.171 395.936L887.295 354.926C887.227 354.456 887.193 353.986 887.21 353.516C887.38 349.685 888.69 346.503 891.159 343.964C893.196 341.867 897.711 339.861 904.721 337.945C908.365 336.952 910.639 333.066 909.879 329.125L906.124 309.678C905.338 305.601 901.609 302.981 897.805 303.821C883.65 306.949 873.065 311.078 866.03 316.229C859.003 321.381 854.522 328.258 852.586 336.87C850.649 345.483 851.376 358.532 854.751 376.018C858.479 395.303 860.237 407.784 860.043 413.441C859.84 419.107 858.412 424.565 855.74 429.843C854.437 432.419 852.29 434.669 849.297 436.594C842.236 441.112 838.745 450.014 840.41 458.635Z" fill="#BEBBBA" stroke="#12100B" stroke-width="3" stroke-miterlimit="10"/>
</g>
</g>
<g id="group4">
<path id="Vector_12" d="M1035.36 584.615C1052.47 584.615 1066.34 570.214 1066.34 552.449C1066.34 534.685 1052.47 520.285 1035.36 520.285C1018.26 520.285 1004.39 534.685 1004.39 552.449C1004.39 570.214 1018.26 584.615 1035.36 584.615Z" fill="#F7AE00" stroke="#12100B" stroke-width="3" stroke-miterlimit="10"/>
<path id="Vector_13" d="M1192.4 321.73C1183.51 338.159 1129.15 407.362 1113.33 398.127C1097.51 388.892 1126.22 304.698 1135.11 288.279C1144.01 271.85 1164.04 266.023 1179.86 275.258C1195.7 284.493 1201.3 305.301 1192.4 321.73Z" fill="#F7AE00" stroke="#12100B" stroke-width="3" stroke-miterlimit="10"/>
<path id="Vector_14" d="M1031.93 669.045C1016.42 659.258 951.63 600.53 961.052 584.416C970.472 568.303 1050.53 600.917 1066.05 610.7C1081.57 620.484 1086.5 641.472 1077.08 657.585C1067.66 673.689 1047.45 678.817 1031.93 669.045Z" fill="#BEBBBA" stroke="#12100B" stroke-width="3" stroke-miterlimit="10"/>
<path id="Vector_15" d="M1097.01 645.851C1114.11 645.851 1127.98 631.45 1127.98 613.686C1127.98 595.922 1114.11 581.521 1097.01 581.521C1079.9 581.521 1066.03 595.922 1066.03 613.686C1066.03 631.45 1079.9 645.851 1097.01 645.851Z" fill="#74B1A0" stroke="#12100B" stroke-width="3" stroke-miterlimit="10"/>
<path id="Vector_16" d="M1190.18 657.271C1201.17 657.271 1210.09 648.011 1210.09 636.589C1210.09 625.167 1201.17 615.907 1190.18 615.907C1179.18 615.907 1170.26 625.167 1170.26 636.589C1170.26 648.011 1179.18 657.271 1190.18 657.271Z" fill="#E6A29E" stroke="#12100B" stroke-width="3" stroke-miterlimit="10"/>
<path id="Vector_17" d="M970.974 393.019C958.159 393.019 947.379 402.02 944.14 414.259C941.516 413.404 938.72 412.946 935.828 412.946C920.458 412.946 907.998 425.885 907.998 441.846C907.998 457.808 920.458 470.747 935.828 470.747C948.643 470.747 959.423 461.755 962.662 449.507C965.286 450.362 968.082 450.821 970.974 450.821C986.344 450.821 998.805 437.881 998.805 421.92C998.805 405.959 986.344 393.019 970.974 393.019Z" fill="#E86149" stroke="#12100B" stroke-width="3" stroke-miterlimit="10"/>
<path id="Vector_18" d="M1199.57 409.879C1213.68 409.879 1225.12 397.198 1225.12 381.554C1225.12 365.911 1213.68 353.229 1199.57 353.229C1185.46 353.229 1174.03 365.911 1174.03 381.554C1174.03 397.198 1185.46 409.879 1199.57 409.879Z" fill="#F7AE00" stroke="#12100B" stroke-width="3" stroke-miterlimit="10"/>
<path id="Vector_19" d="M1190.68 345.64C1201.4 345.64 1210.09 336.614 1210.09 325.48C1210.09 314.345 1201.4 305.319 1190.68 305.319C1179.96 305.319 1171.27 314.345 1171.27 325.48C1171.27 336.614 1179.96 345.64 1190.68 345.64Z" fill="#E86149" stroke="#12100B" stroke-width="3" stroke-miterlimit="10"/>
<path id="Vector_20" d="M935.828 645.86C948.525 645.86 958.817 635.171 958.817 621.985C958.817 608.801 948.525 598.111 935.828 598.111C923.131 598.111 912.838 608.801 912.838 621.985C912.838 635.171 923.131 645.86 935.828 645.86Z" fill="#B19772" stroke="#12100B" stroke-width="3" stroke-miterlimit="10"/>
</g>
<g id="group5">
<path id="Vector_21" d="M1398.38 553.291C1383.29 553.291 1371.05 566.452 1371.05 582.693C1371.23 591.624 1370.66 598.861 1369.64 604.74C1368.47 608.851 1365.62 614.359 1358.73 618.507C1354.02 614.331 1347.98 611.822 1341.4 611.822C1326.3 611.822 1314.07 624.984 1314.07 641.224C1314.07 657.464 1326.3 670.625 1341.4 670.625C1356.49 670.625 1368.72 657.464 1368.72 641.224C1368.72 636.686 1367.76 632.393 1366.07 628.552C1379.4 615.536 1398.38 612.085 1398.38 612.085C1413.48 612.085 1425.72 598.924 1425.72 582.684C1425.72 566.452 1413.48 553.291 1398.38 553.291Z" fill="#75B1A1" stroke="black" stroke-width="3" stroke-miterlimit="10"/>
<path id="Vector_22" d="M1406.74 342.544C1404.91 343.604 1403.23 344.854 1401.71 346.257C1392.52 351.538 1370.52 358.088 1333.89 333.776C1326.21 318.451 1308.43 312.735 1294.19 320.996C1279.95 329.256 1274.63 348.377 1282.31 363.703C1289.99 379.029 1307.76 384.745 1322 376.484C1322.82 376.003 1323.61 375.496 1324.37 374.944C1324.37 374.944 1357.55 357.145 1394.47 382.615C1394.68 383.123 1394.92 383.621 1395.16 384.11C1402.64 399.028 1419.94 404.598 1433.8 396.555C1447.67 388.512 1452.85 369.898 1445.37 354.98C1437.9 340.071 1420.6 334.501 1406.74 342.544Z" fill="#74509B" stroke="#12100B" stroke-width="3" stroke-miterlimit="10"/>
<path id="Vector_23" d="M1048 341.176C1046 341.176 1044.05 341.412 1042.17 341.846C1032.13 341.801 1010.68 336.53 989.954 297.88C989.954 281.105 977.309 267.501 961.716 267.501C946.124 267.501 933.478 281.105 933.478 297.88C933.478 314.656 946.124 328.26 961.716 328.26C962.617 328.26 963.501 328.205 964.377 328.124C964.377 328.124 1000.09 329.365 1020.57 369.128C1020.54 369.663 1020.52 370.206 1020.52 370.741C1020.52 387.072 1032.83 400.315 1048.01 400.315C1063.19 400.315 1075.5 387.072 1075.5 370.741C1075.5 354.409 1063.18 341.176 1048 341.176Z" fill="#E6A29E" stroke="#12100B" stroke-width="3" stroke-miterlimit="10"/>
</g>
</g>
</svg>
