<svg width="819" height="1024" viewBox="0 0 819 1024" fill="none" xmlns="http://www.w3.org/2000/svg">
<path d="M166.704 238.809C222.109 139.329 261.396 32.0776 316.801 6.43046C372.206 -19.2167 444.233 36.7407 508.201 88.0349C572.169 139.329 628.581 184.406 688.016 255.907C747.451 326.631 809.907 423.779 817.966 529.476C826.529 635.951 780.694 750.974 725.288 838.796C669.38 927.395 603.397 987.238 534.392 1010.55C465.892 1034.65 394.872 1021.43 308.239 1009C222.109 997.342 120.868 986.461 61.9374 904.857C2.5028 824.029 -14.6224 671.701 12.5765 550.46C39.7754 429.219 111.298 338.289 166.704 238.809Z" fill="white"/>
</svg>
