<svg width="436" height="62" viewBox="0 0 436 62" fill="none" xmlns="http://www.w3.org/2000/svg">
<path id="First (Stroke)" fill-rule="evenodd" clip-rule="evenodd" d="M41.691 61.4219H19.2607L5.47945 23.8047H0.597656V2.09765H88.8906V20.1347C93.4651 17.224 98.9932 15.9141 105.16 15.9141C112.473 15.9141 118.917 17.7905 124.056 21.9492L124.065 21.9571L124.075 21.9651C129.474 26.3797 131.974 32.8743 132.27 40.5135L132.354 42.6861L133.696 42.8511L132.47 45.6967L132.471 45.707H132.466L131.057 48.9781C130.159 51.0633 128.906 52.9361 127.327 54.5788L127.31 54.5963L127.293 54.6136C125.717 56.2212 123.86 57.5577 121.785 58.6548C117.515 60.9474 112.603 61.9844 107.234 61.9844C98.7188 61.9844 91.4009 60.2323 86.1312 55.8911C80.9547 51.6503 78.3166 45.9458 78.2931 39.2156L70.0747 61.4219H47.8613L44.7844 52.6492L41.691 61.4219ZM38.1523 56.4219H22.7539L8.97266 18.8047H5.59766V7.09765H30.9453V18.8047H27.2891L33.0547 39.8633L40.3672 18.8047H36.7461V7.09765H58.0508V18.8047H54.4297L61.8477 39.8633L67.6836 18.8047H64.168V7.09765H83.8906V18.8047H80.5156L66.5938 56.4219H51.4062L44.7969 37.5781L38.1523 56.4219ZM83.9966 23.8047L83.7155 24.5643C83.9425 24.3075 84.1766 24.0543 84.4175 23.8047H83.9966ZM89.2344 26.1172C85.2734 29.5859 83.293 33.9219 83.293 39.125C83.293 44.4453 85.2969 48.7461 89.3047 52.0273C93.3125 55.332 99.2891 56.9844 107.234 56.9844C111.969 56.9844 116.035 56.0703 119.434 54.2422C120.871 53.4835 122.121 52.6143 123.185 51.6345C123.37 51.4641 123.549 51.2904 123.723 51.1133C124.895 49.8945 125.809 48.5234 126.465 47L111.875 45.207C111.802 45.3796 111.725 45.5462 111.645 45.707C110.554 47.9049 108.873 49.0039 106.602 49.0039C104.046 49.0039 102.281 47.9049 101.309 45.707C100.792 44.5402 100.499 43.0636 100.429 41.2773C100.421 41.0906 100.417 40.9005 100.414 40.707H127.273C127.204 38.9175 127 37.2509 126.661 35.707C125.74 31.5083 123.823 28.2179 120.91 25.8359C116.855 22.5547 111.605 20.9141 105.16 20.9141C98.457 20.9141 93.1484 22.6484 89.2344 26.1172ZM100.591 35.707C100.594 35.9131 100.606 36.1032 100.625 36.2773H110.574C110.589 36.0574 110.601 35.8673 110.611 35.707C110.633 35.3548 110.645 35.1465 110.645 35.082C110.645 34.668 110.621 34.2698 110.574 33.8874C110.455 32.9151 110.184 32.0451 109.762 31.2773C109.608 30.9967 109.433 30.7298 109.238 30.4766C108.301 29.2812 107.059 28.6836 105.512 28.6836C103.918 28.6836 102.699 29.3398 101.855 30.6523C101.728 30.8537 101.611 31.0621 101.503 31.2773C101.014 32.2519 100.721 33.3685 100.625 34.6269C100.602 34.9342 100.59 35.25 100.59 35.5742C100.59 35.6192 100.59 35.6635 100.591 35.707ZM186.155 29.957H185.653L184.62 26.3239C184.212 24.8889 183.619 24.038 182.988 23.4902C182.376 22.9791 181.805 22.7852 181.098 22.7852C180.508 22.7852 180.234 22.9054 180.11 22.9768C179.987 23.0475 179.751 23.2188 179.462 23.7158C178.797 24.8608 178.152 27.2227 178.152 31.4609C178.152 35.6945 178.816 38.0384 179.496 39.1717C179.932 39.898 180.331 40.1719 181.379 40.1719C182.355 40.1719 182.899 39.8925 183.433 39.2621C184.138 38.4284 184.978 36.7324 185.523 33.5932L186.155 29.957ZM186.23 19.6836C187.73 20.9727 188.797 22.7305 189.43 24.957H201.629V7.09765H189.887V10.3672C188.401 9.19967 186.734 8.27248 184.887 7.58561C182.247 6.60406 179.238 6.11328 175.859 6.11328C168.781 6.11328 163.027 8.58593 158.598 13.5312C154.168 18.4766 151.953 24.4883 151.953 31.5664C151.953 38.5977 154.215 44.5508 158.738 49.4258C163.238 54.3242 170.176 56.7734 179.551 56.7734C186.418 56.7734 191.809 55.0976 195.723 51.7461C199.59 48.418 202.062 44.1406 203.141 38.9141L190.449 34.4492C190.128 36.3005 189.686 37.9121 189.126 39.284C187.522 43.2092 184.939 45.1719 181.379 45.1719C175.895 45.1719 173.152 40.6016 173.152 31.4609C173.152 22.3437 175.801 17.7852 181.098 17.7852C183.02 17.7852 184.73 18.418 186.23 19.6836ZM155.065 52.8177C149.636 46.9631 146.953 39.7755 146.953 31.5664C146.953 23.3459 149.565 16.1216 154.873 10.1952C160.32 4.11451 167.466 1.11328 175.859 1.11328C179.057 1.11328 182.082 1.50002 184.887 2.32128V2.09765H206.629V16.8984H234.648V17.9466C235.346 17.6161 236.069 17.3398 236.818 17.126L236.827 17.1233C239.072 16.4866 241.934 16.2656 245.117 16.2656H250.117V23.131C250.388 22.8717 250.666 22.6166 250.952 22.3656C256.014 17.8856 262.618 15.9141 270.184 15.9141C277.496 15.9141 283.94 17.7905 289.079 21.9492L289.089 21.9571L289.099 21.9651C291.081 23.5864 292.673 25.4883 293.908 27.6244C295.975 23.2785 299.339 20.1116 303.825 18.3145C308.074 16.5943 313.786 15.9141 320.527 15.9141C323.036 15.9141 325.329 15.9986 327.394 16.1759C329.449 16.3274 331.354 16.5706 333.088 16.9209C336.544 17.5739 339.782 18.684 342.208 20.6546L342.226 20.6693L342.244 20.6842C343.535 21.7535 344.678 22.9668 345.586 24.3406V16.8984H349.945V13.5002L377.629 0.346344V16.8984H384.766V26.0721C385.745 24.7524 386.891 23.515 388.202 22.3656C393.264 17.8856 399.868 15.9141 407.434 15.9141C414.746 15.9141 421.19 17.7905 426.329 21.9492L426.339 21.9571L426.349 21.9651C431.748 26.3797 434.247 32.8743 434.543 40.5135L434.627 42.6861L435.97 42.8511L434.744 45.6967L434.744 45.707H434.739L433.33 48.9781C432.432 51.0633 431.18 52.9361 429.6 54.5788L429.583 54.5963L429.566 54.6136C427.99 56.2215 426.133 57.5581 424.057 58.6553C419.788 60.9476 414.876 61.9844 409.508 61.9844C400.992 61.9844 393.674 60.2323 388.405 55.8911C387.006 54.7451 385.792 53.4922 384.766 52.1411V56.6921L382.559 58.1784C380.756 59.3924 378.492 60.2481 376.071 60.8989L376.064 60.901L376.056 60.9031C373.392 61.6097 370.757 61.9844 368.164 61.9844C364.985 61.9844 361.967 61.4654 359.266 60.2316L359.262 60.2298C356.628 59.0238 354.361 57.2675 352.769 54.8409L352.735 54.7895L352.703 54.7373C352.619 54.6033 352.538 54.4687 352.457 54.3335V61H320.414V60.9415C318.141 61.4166 315.716 61.6328 313.18 61.6328C307.75 61.6328 302.755 60.4547 299.055 57.2584C297.143 55.618 295.668 53.6965 294.742 51.5263C294.056 52.6174 293.257 53.636 292.35 54.5788L292.333 54.5963L292.316 54.6136C290.74 56.2215 288.883 57.5581 286.807 58.6553C282.538 60.9476 277.626 61.9844 272.258 61.9844C263.742 61.9844 256.424 60.2323 251.155 55.8911C246.506 52.0829 243.905 47.0944 243.405 41.2428C242.483 41.2474 241.677 41.279 240.977 41.3296V61H203.484V50.6065C202.214 52.401 200.714 54.0475 198.984 55.5359L198.975 55.544C193.891 59.8973 187.21 61.7734 179.551 61.7734C169.369 61.7734 160.847 59.1054 155.065 52.8177ZM207.963 40.2773H208.125V39.5001L208.038 39.9242C208.013 40.0422 207.988 40.16 207.963 40.2773ZM203.484 33.7346L192.747 29.957H203.484V33.7346ZM213.125 45.2773H208.484V56H235.977V45.2773H230.809C230.832 43.2148 231.184 41.5508 231.863 40.2851C231.865 40.2825 231.866 40.2799 231.867 40.2773C232.525 39.0622 233.766 38.0804 235.59 37.332C237.032 36.736 239.097 36.3844 241.785 36.2773C242.327 36.2558 242.894 36.2441 243.486 36.2424C243.538 36.2423 243.589 36.2422 243.641 36.2422C244.227 36.2422 244.719 36.2539 245.117 36.2773V21.2656C243.139 21.2656 241.473 21.3594 240.117 21.5471C239.384 21.6485 238.742 21.7773 238.191 21.9336C236.998 22.2746 235.817 22.8946 234.648 23.7936C234.21 24.1305 233.774 24.5066 233.34 24.9219C231.676 26.4687 230.445 28.3086 229.648 30.4414V21.8984H208.484V32.6211H213.125V45.2773ZM248.456 41.4824C248.972 45.7303 250.93 49.2453 254.328 52.0273C258.336 55.332 264.312 56.9844 272.258 56.9844C276.992 56.9844 281.059 56.0703 284.457 54.2422C285.895 53.4835 287.145 52.6143 288.208 51.6345C288.393 51.4641 288.572 51.2904 288.746 51.1133C289.918 49.8945 290.832 48.5234 291.488 47L276.898 45.207C276.825 45.3796 276.748 45.5462 276.668 45.707C275.578 47.9049 273.896 49.0039 271.625 49.0039C269.069 49.0039 267.305 47.9049 266.332 45.707C265.816 44.5402 265.522 43.0636 265.452 41.2773C265.445 41.0906 265.44 40.9005 265.438 40.707H292.297C292.228 38.9175 292.024 37.2509 291.685 35.707C291.582 35.2393 291.467 34.7829 291.34 34.3378C291.278 34.121 291.213 33.907 291.145 33.6956C290.102 30.4433 288.364 27.8234 285.934 25.8359C281.879 22.5547 276.629 20.9141 270.184 20.9141C263.48 20.9141 258.172 22.6484 254.258 26.1172C252.478 27.6763 251.097 29.4105 250.117 31.32C249.327 32.8587 248.797 34.5111 248.527 36.2773C248.387 37.1958 248.316 38.145 248.316 39.125C248.316 39.9344 248.363 40.7202 248.456 41.4824ZM265.614 35.707C265.618 35.9131 265.629 36.1032 265.648 36.2773H275.598C275.612 36.0574 275.625 35.8673 275.635 35.707C275.657 35.3548 275.668 35.1465 275.668 35.082C275.668 34.668 275.645 34.2698 275.598 33.8874C275.478 32.9151 275.208 32.0451 274.785 31.2773C274.631 30.9967 274.457 30.7298 274.262 30.4766C273.324 29.2812 272.082 28.6836 270.535 28.6836C268.941 28.6836 267.723 29.3398 266.879 30.6523C266.752 30.8537 266.634 31.0621 266.526 31.2773C266.037 32.2519 265.744 33.3685 265.648 34.6269C265.625 34.9342 265.613 35.25 265.613 35.5742C265.613 35.6192 265.614 35.6635 265.614 35.707ZM296.618 34.8736C296.762 35.5558 296.883 36.2512 296.982 36.959C297.553 36.2995 298.188 35.6806 298.883 35.1035L296.618 34.8736ZM303.16 38.1406C300.137 40.1797 298.625 42.793 298.625 45.9805C298.625 48.8633 299.855 51.3594 302.316 53.4687C304.754 55.5781 308.375 56.6328 313.18 56.6328C315.879 56.6328 318.29 56.3581 320.414 55.8086C322.31 55.318 323.977 54.6083 325.414 53.6797V56H347.457V45.2773H343.098V35.4336C343.098 32.3164 342.793 30.0195 342.184 28.543C341.598 27.1133 340.555 25.7773 339.055 24.5352C337.555 23.3164 335.246 22.4141 332.129 21.8281C330.629 21.5234 328.918 21.3008 326.996 21.1602C325.098 20.9961 322.941 20.9141 320.527 20.9141C313.988 20.9141 309.043 21.5937 305.691 22.9531C304.188 23.5544 302.869 24.3505 301.732 25.3414C300.299 26.591 299.158 28.1503 298.309 30.0195L312.16 31.4258C312.504 30.9337 312.881 30.4972 313.292 30.1162C314.701 28.8096 316.503 28.1562 318.699 28.1562C320.246 28.1562 321.605 28.4609 322.777 29.0703C323.889 29.6956 324.612 30.4468 324.945 31.3239C324.949 31.3344 324.953 31.3449 324.957 31.3555C325.254 32.1768 325.406 33.5979 325.414 35.6188C325.414 35.6738 325.414 35.7292 325.414 35.7851V36.8047C324.475 36.39 323.417 36.0501 322.243 35.7851C321.664 35.6547 321.057 35.5424 320.422 35.4483C320.419 35.4478 320.416 35.4474 320.413 35.4469C319.493 35.311 318.514 35.213 317.475 35.153C316.901 35.12 316.31 35.0984 315.7 35.0885C315.438 35.0842 315.172 35.082 314.902 35.082C313.813 35.082 312.77 35.134 311.773 35.2378C310.343 35.3869 309.009 35.6429 307.77 36.0058C306.048 36.5106 304.511 37.2222 303.16 38.1406ZM325.414 41.0586C324.9 40.7824 324.376 40.5515 323.842 40.3657C322.744 39.9839 321.604 39.793 320.422 39.793C319.536 39.793 318.754 39.9314 318.075 40.2082C317.569 40.4147 317.121 40.6981 316.73 41.0586C315.816 41.9258 315.359 43.0273 315.359 44.3633C315.359 45.7461 315.828 46.8711 316.766 47.7383C317.727 48.6289 318.828 49.0742 320.07 49.0742C322.273 49.0742 324.055 48.4766 325.414 47.2812V41.0586ZM320.161 44.0678C320.162 44.0687 320.163 44.0698 320.164 44.0711L320.161 44.0678ZM348.098 37.6211V40.2773H349.951C349.947 39.6626 349.945 39.0204 349.945 38.3516V37.6211H348.098ZM380.612 37.6211C380.61 37.6457 380.609 37.6704 380.607 37.6951L377.717 38.9938C377.687 39.0071 377.658 39.0201 377.629 39.0329V37.6211H380.612ZM372.629 32.6211H379.766V21.8984H372.629V8.25781L354.945 16.6602V21.8984H350.586V32.6211H354.945V38.3516C354.945 42.7812 355.027 45.7695 355.191 47.3164C355.309 48.207 355.496 49.0156 355.754 49.7422C356.012 50.4453 356.41 51.2305 356.949 52.0976C357.934 53.5976 359.398 54.793 361.344 55.6836C363.242 56.5508 365.516 56.9844 368.164 56.9844C370.273 56.9844 372.477 56.6797 374.773 56.0703C376.953 55.4844 378.617 54.8047 379.766 54.0312V43.5547C378.148 44.2812 376.766 44.6445 375.617 44.6445C375.306 44.6445 375.022 44.6208 374.766 44.5734C374.019 44.4352 373.506 44.0956 373.227 43.5547C372.828 42.8281 372.629 41.3867 372.629 39.2305V32.6211ZM375.572 39.6431C375.573 39.643 375.578 39.6432 375.588 39.6441C375.576 39.6437 375.571 39.6432 375.572 39.6431ZM391.578 52.0273C395.586 55.332 401.562 56.9844 409.508 56.9844C414.242 56.9844 418.309 56.0703 421.707 54.2422C423.145 53.4835 424.395 52.6143 425.458 51.6345C425.643 51.4641 425.822 51.2904 425.996 51.1133C427.168 49.8945 428.082 48.5234 428.738 47L414.148 45.207C414.075 45.3796 413.998 45.5462 413.918 45.707C412.828 47.9049 411.146 49.0039 408.875 49.0039C406.319 49.0039 404.555 47.9049 403.582 45.707C403.066 44.5402 402.772 43.0636 402.702 41.2773C402.695 41.0906 402.69 40.9005 402.688 40.707H429.547C429.478 38.9175 429.274 37.2509 428.935 35.707C428.014 31.5083 426.097 28.2179 423.184 25.8359C419.129 22.5547 413.879 20.9141 407.434 20.9141C400.73 20.9141 395.422 22.6484 391.508 26.1172C387.547 29.5859 385.566 33.9219 385.566 39.125C385.566 44.4453 387.57 48.7461 391.578 52.0273ZM402.864 35.707C402.868 35.9131 402.879 36.1032 402.898 36.2773H412.848C412.862 36.0574 412.875 35.8673 412.885 35.707C412.907 35.3548 412.918 35.1465 412.918 35.082C412.918 34.668 412.895 34.2698 412.848 33.8874C412.728 32.9151 412.458 32.0451 412.035 31.2773C411.881 30.9967 411.707 30.7298 411.512 30.4766C410.574 29.2812 409.332 28.6836 407.785 28.6836C406.191 28.6836 404.973 29.3398 404.129 30.6523C404.002 30.8537 403.884 31.0621 403.776 31.2773C403.287 32.2519 402.994 33.3685 402.898 34.6269C402.875 34.9342 402.863 35.25 402.863 35.5742C402.863 35.6192 402.864 35.6635 402.864 35.707Z" fill="white"/>
</svg>
