<svg width="3360" height="150" viewBox="0 0 3360 150" fill="none" xmlns="http://www.w3.org/2000/svg">
<path fill-rule="evenodd" clip-rule="evenodd" d="M1519.87 23.6318C1563.67 37.6701 1610.76 52.7575 1680 52.7575C1742.72 52.7575 1773.83 72.8271 1802.97 91.6244C1856.03 125.857 1902.55 155.87 2121.54 52.7575C2296.41 -29.5844 2406.9 15.1921 2513.1 58.2366C2612.93 98.6921 2708.97 137.618 2851.15 68.0425C3043.99 -26.3196 3115.92 -3.27021 3199.87 23.6318C3243.67 37.6701 3290.76 52.7575 3360 52.7575V150H2514.62H1680H834.615H0V52.7575C62.7189 52.7575 93.8289 72.8271 122.967 91.6244C176.031 125.857 222.553 155.87 441.538 52.7575C616.413 -29.5844 726.896 15.1921 833.105 58.2366C932.926 98.6921 1028.97 137.618 1171.15 68.0425C1363.99 -26.3195 1435.92 -3.27021 1519.87 23.6318Z" fill="#F4EDED"/>
</svg>
